<?xml version="1.0" encoding="utf-8"?>
<!-- Generator: Adobe Illustrator 16.0.4, SVG Export Plug-In . SVG Version: 6.00 Build 0)  -->
<!DOCTYPE svg PUBLIC "-//W3C//DTD SVG 1.1//EN" "http://www.w3.org/Graphics/SVG/1.1/DTD/svg11.dtd">
<svg version="1.1" xmlns="http://www.w3.org/2000/svg" xmlns:xlink="http://www.w3.org/1999/xlink" x="0px" y="0px"
	 width="215.998px" height="52.51px" viewBox="0 0 215.998 52.51" enable-background="new 0 0 215.998 52.51" xml:space="preserve">
<g id="Background">
</g>
<g id="Guides">
</g>
<g id="Foreground">
	<polygon fill="#FFFFFF" points="6.848,9.486 6.848,14.771 0,14.771 0.008,9.486 	"/>
	<polygon fill="#FFFFFF" points="23.291,28.408 23.291,31.102 3.645,31.188 3.645,28.408 	"/>
	<path fill="#FFFFFF" d="M36.986,2.156c1.229-1.232,3.231-2.18,6.395-2.136h17.07c2.617,0.129,4.387,0.945,5.522,2.136H36.986z"/>
	<rect x="74.119" y="28.408" fill="#FFFFFF" width="19.434" height="2.793"/>
	<rect x="130.003" y="9.486" fill="#FFFFFF" width="6.834" height="5.284"/>
	<polygon fill="#FFFFFF" points="175.043,9.486 175.031,14.771 168.21,14.771 168.218,9.486 	"/>
	<rect x="171.841" y="28.409" fill="#FFFFFF" width="17.071" height="2.779"/>
	<polygon fill="#FFFFFF" points="202.368,28.408 202.366,31.161 194.052,31.147 194.052,30.04 192.954,28.408 	"/>
	<path fill="#FFFFFF" d="M185.292,22.1c0.428,0.459,1.006,0.775,1.711,0.892l1.455,0.026l0.454,0.641v3.724h-17.071v-4.178h1.708
		c1.066-0.032,1.907-0.527,2.423-1.105H185.292z"/>
	<polygon fill="#FFFFFF" points="202.372,22.1 202.37,27.383 192.267,27.383 188.717,22.1 	"/>
	<path fill="#FFFFFF" d="M202.376,15.792l-0.003,5.284h-14.344l-3.162-4.706h-0.427v3.191c-0.019,0.548,0.061,1.061,0.229,1.515
		h-8.149c0.014-0.076,0.02-0.15,0.018-0.221v-5.063H202.376z"/>
	<polygon fill="#FFFFFF" points="202.379,9.486 202.376,14.771 176.538,14.771 176.538,9.486 191.584,9.486 194.052,13.18 
		194.478,13.167 194.478,9.486 	"/>
	<path fill="#FFFFFF" d="M204.288,7.188c-0.56,0.063-1.167,0.7-1.543,1.275h-8.546c-0.557-0.865-1.867-1.462-3.214-1.562
		l-14.219,0.06c-0.447-0.053-1.45,0.539-1.678,1.502h-6.868l0.003-2.757c-0.011-0.906,0.204-1.758,0.593-2.527h38.464v3.995
		L204.288,7.188z"/>
	<path fill="#FFFFFF" d="M138.531,7.215c-0.625,0.009-1.431,0.608-1.644,1.248h-6.885V5.092c-0.005-0.652,0.163-1.301,0.468-1.913
		h34.69c0.956,1.45,1.36,3.137,1.36,4.69v0.594h-10.665c-0.365-0.938-1.206-1.324-3.003-1.248H138.531z"/>
	<polygon fill="#FFFFFF" points="138.339,14.77 138.345,9.486 148.783,9.486 148.788,14.77 	"/>
	<rect x="156.057" y="9.486" fill="#FFFFFF" width="10.464" height="5.284"/>
	<polygon fill="#FFFFFF" points="148.791,15.792 148.796,21.077 138.332,21.077 138.338,15.792 	"/>
	<path fill="#FFFFFF" d="M139.712,27.384c-1.013-1.708-1.362-3.693-1.38-5.284h10.654c0.459,1.135,1.644,1.552,2.371,1.558h2.351
		c0.949-0.056,1.746-0.723,2.126-1.558h10.688v0.277c0,1.663-0.379,3.468-1.298,5.007H139.712z"/>
	<path fill="#FFFFFF" d="M146.233,31.134c-2.743-0.19-4.588-1.278-5.798-2.727h24.061c-1.251,1.479-3.15,2.551-5.89,2.727H146.233z"
		/>
	<rect x="156.057" y="15.792" fill="#FFFFFF" width="10.464" height="5.284"/>
	<rect x="104.362" y="28.408" fill="#FFFFFF" width="19.434" height="2.766"/>
	<polygon fill="#FFFFFF" points="88.629,21.149 78.977,21.077 79.031,20.736 79.031,15.793 88.642,15.793 	"/>
	<rect x="79.031" y="9.203" fill="#FFFFFF" width="9.611" height="5.566"/>
	<polygon fill="#FFFFFF" points="77.529,9.486 77.536,14.771 69.421,14.771 69.421,9.486 	"/>
	<path fill="#FFFFFF" d="M90.038,8.463c-0.242-0.408-0.63-0.63-1.184-0.755H78.817c-0.246-0.037-0.691,0.226-0.989,0.755H69.42V6
		c0.032-1.058,0.331-2.004,0.808-2.821h28.234l-0.005,5.284H90.038z"/>
	<path fill="#FFFFFF" d="M90.349,10.058c0.001-0.208-0.006-0.397-0.023-0.571h8.13l-0.004,5.283h-8.103V10.058z"/>
	<path fill="#FFFFFF" d="M41.911,9.486c-0.032,0.142-0.046,0.266-0.04,0.358v4.926H35.25V9.486H41.911z"/>
	<path fill="#FFFFFF" d="M57.761,8.463c-0.259-0.326-0.646-0.574-1.141-0.755H43.579c-0.514,0.004-0.923,0.34-1.212,0.755H35.25
		V6.427c-0.038-0.844,0.183-2.084,0.919-3.248h30.579c0.649,1.093,0.929,2.37,0.951,3.675L67.7,8.463H57.761z"/>
	<path fill="#FFFFFF" d="M43.58,14.77V9.486h8.104l0.011,2.494c0.016,0.265,0.21,0.428,0.641,0.427h5.125
		c0.538,0.001,0.636-0.162,0.641-0.427V9.486h9.6l0.004,5.284H43.58z"/>
	<rect x="38.668" y="28.408" fill="#FFFFFF" width="15.376" height="2.793"/>
	<path fill="#FFFFFF" d="M51.751,22.1c0.259,1.04,1.62,1.735,2.293,1.625v3.658H38.668v-3.658h1.708
		c1.044-0.007,2.241-0.625,2.833-1.625H51.751z"/>
	<path fill="#FFFFFF" d="M58.102,21.077v-1.836c-0.028-0.238-0.234-0.446-0.641-0.427h-5.198c-0.326-0.052-0.619,0.172-0.568,0.405
		l0.009,1.858h-8.144c0.014-0.111,0.021-0.225,0.02-0.341v-4.943h24.127l0.004,5.284H58.102z"/>
	<rect x="55.753" y="28.408" fill="#FFFFFF" width="16.872" height="2.793"/>
	<path fill="#FFFFFF" d="M72.625,23.726v3.658H55.759l0.006-3.658c0.904-0.035,1.885-0.577,2.219-1.625h10.023
		C68.503,23.016,69.64,24.046,72.625,23.726z"/>
	<path fill="#FFFFFF" d="M18.297,22.1c0.467,0.947,1.208,1.498,2.644,1.625h2.35v3.658H3.644v-3.658h2.349
		c1.031-0.223,1.623-0.618,2.077-1.625H18.297z"/>
	<path fill="#FFFFFF" d="M33.639,15.792c-0.957,3.082-3.87,4.651-7.358,4.73h-8.116v0.554H8.343v-5.284H33.639z"/>
	<path fill="#FFFFFF" d="M23.504,9.416L33.96,9.486l0.009,3.762c0.012,0.537-0.021,1.044-0.095,1.521H8.341V9.486h9.61v3.996
		c-0.034,0.121,0.128,0.457,0.324,0.419h3.734c0.959-0.191,1.349-0.712,1.495-1.508V9.416z"/>
	<path fill="#FFFFFF" d="M0.01,8.463l0.003-2.25c0.149-1.186,0.486-2.195,0.977-3.034h32.058c0.692,1.242,1.026,2.786,0.909,4.529
		l0.002,0.755H23.121c-0.256-0.361-0.631-0.648-1.111-0.768L8.569,7.708C8.024,7.76,7.498,8.047,7.154,8.463H0.01z"/>
	<path fill="#FFFFFF" d="M1.737,2.156c1.199-1.324,2.916-2.021,4.91-2.136h21.329c1.81,0.141,3.312,0.91,4.36,2.136H1.737z"/>
	<path fill="#FFFFFF" d="M74.12,27.383v-3.658h1.708c1.425,0.081,2.363-0.779,2.868-1.625h10.281
		c0.506,0.846,1.442,1.706,2.868,1.625h1.708v3.658H74.12z"/>
	<path fill="#FFFFFF" d="M104.362,27.383v-3.658h1.708c1.425,0.081,2.363-0.779,2.868-1.625h10.283
		c0.505,0.846,1.442,1.706,2.866,1.625h1.709v3.658H104.362z"/>
	<polygon fill="#FFFFFF" points="118.863,21.149 109.21,21.077 109.266,20.736 109.265,15.793 118.876,15.793 	"/>
	<rect x="109.265" y="9.204" fill="#FFFFFF" width="9.61" height="5.566"/>
	<polygon fill="#FFFFFF" points="107.763,9.486 107.77,14.771 99.654,14.771 99.654,9.486 	"/>
	<path fill="#FFFFFF" d="M120.271,8.463c-0.241-0.408-0.63-0.63-1.183-0.755h-10.037c-0.246-0.037-0.691,0.226-0.99,0.755h-8.407V6
		c0.031-1.058,0.331-2.004,0.808-2.821h28.234l-0.005,5.284H120.271z"/>
	<path fill="#FFFFFF" d="M120.583,10.058c0.002-0.208-0.006-0.397-0.022-0.571h8.131l-0.005,5.283h-8.104V10.058z"/>
	<path fill="#FFFFFF" d="M98.463,2.156H70.859c1.199-1.324,2.916-2.021,4.909-2.136h22.695V2.156z"/>
	<path fill="#FFFFFF" d="M131.131,2.156c1.198-1.324,2.915-2.021,4.91-2.136h23.914c1.811,0.141,3.312,0.91,4.36,2.136H131.131z"/>
	<path fill="#FFFFFF" d="M128.699,2.156h-27.604c1.199-1.324,2.916-2.021,4.909-2.136h22.695V2.156z"/>
	<path fill="#FFFFFF" d="M207.279,2.156h-37.809c1.199-1.324,2.916-2.021,4.91-2.136h32.898V2.156z"/>
	<path fill="#9ECEFF" d="M100.919,49.591c0,0.578,0.354,0.931,0.855,1.106c1.208-0.452,3.725-2.692,4.933-3.522
		c0.402-0.276,0.805-0.578,1.182-0.881c0.327-0.227,0.831-0.654,1.233-0.704c0.378-0.428,0.83-0.932,1.309-1.259
		c0.479-0.276,1.912-0.78,1.912-1.434c0-0.126-0.075-0.177-0.201-0.177c-0.075,0-0.452,0.277-0.554,0.327
		c-0.906,0.579-1.812,1.107-2.742,1.637c-0.831,0.503-1.66,1.03-2.542,1.434c-0.226,0.553-1.133,0.654-1.384,1.106
		c-0.327,0.253-2.038,1.183-2.441,1.31c0.025-0.831,0.629-1.511,0.906-2.265c0.176-0.453,0.277-0.932,0.579-1.333
		c0.402-0.58,1.082-1.184,1.082-1.913c0-0.076-0.025-0.126-0.025-0.176c0.754-0.882,1.308-1.838,1.812-2.845
		c0.125-0.251,0.276-0.428,0.528-0.553c0.201-0.101,0.428-0.15,0.654-0.253c0.453-0.175,0.855-0.477,0.855-1.005
		c0-0.555-0.452-1.008-0.578-1.535c-0.025-0.076-0.051-0.227-0.076-0.277c-0.101-0.126-0.503-0.353-0.679-0.578
		c-0.1-0.126-0.201-0.353-0.377-0.353c-0.101,0-0.731,0.353-1.007,0.378c-0.125,0.15-0.277,0.302-0.277,0.503
		s0.126,0.402,0.126,0.604c-0.101,0.126-0.126,0.277-0.126,0.453c0,0.378,0.076,0.68-0.352,0.88
		c-0.076,1.536-2.038,4.178-2.038,4.631c0,0.076,0.025,0.15,0.075,0.201c-0.1,0.252-0.277,0.629-0.554,0.704
		C102.429,45.212,100.919,48.208,100.919,49.591z"/>
	<path fill-rule="evenodd" clip-rule="evenodd" fill="#9ECEFF" d="M107.863,48.936c0,0.579,0.353,1.359,1.007,1.436
		c0.177,0.075,0.329,0.125,0.504,0.176c0.176-0.051,0.578-0.151,0.654-0.302c2.768-1.057,5.812-3.397,7.926-5.461
		c0.227-0.252,1.132-1.057,1.132-1.358c0-0.126-0.075-0.227-0.202-0.227c-0.704,0-1.987,1.535-2.515,2.013
		c-1.108,1.031-5.259,4.077-6.644,4.077c-0.327,0-0.377-0.453-0.377-0.706c0-0.452,0.251-1.232,0.653-1.457
		c0.403-0.203,0.831-0.354,1.259-0.479c0.226-0.076,0.427-0.228,0.604-0.354c0.352-0.201,0.705-0.353,1.082-0.528
		c0.353-0.176,1.837-1.459,2.089-1.761c0.126-0.177,0.427-0.579,0.554-0.68c0.075-0.05,0.176-0.076,0.227-0.15
		c0.302-0.228,0.376-0.605,0.376-0.957c0-0.101,0-0.175-0.023-0.252c0.023-0.201,0.05-0.378,0.05-0.578
		c0-0.403-0.302-0.503-0.654-0.503c-1.133,0-1.66,0.604-2.617,1.031c-0.2,0.101-0.402,0.176-0.604,0.277
		c-0.78,0.402-2.441,2.339-3.095,3.068c-0.303,0.354-0.528,0.68-0.705,1.107c-0.1,0.252-0.201,0.479-0.327,0.705
		c-0.302,0.654-0.175,0.78-0.275,1.435C107.914,48.634,107.863,48.786,107.863,48.936z M114.255,42.772
		c0.05,0.076,0.076,0.176,0.076,0.302c0,0.378-0.202,0.68-0.528,0.882c-0.228,0.577-2.215,1.861-2.819,2.062
		c-0.2,0.05-0.402,0.075-0.604,0.101c0.177-0.452,0.906-1.51,1.309-1.762c0.227-0.126,0.453-0.251,0.604-0.452
		c0.252-0.303,1.309-1.184,1.687-1.184C114.054,42.721,114.154,42.747,114.255,42.772z"/>
	<path fill="#9ECEFF" d="M122.734,41.01c0.806,0,1.511,0.076,1.511-1.031c0-0.428-0.327-0.528-0.681-0.528
		c-0.402,0-1.358,0.101-1.735,0.176c0.201-0.553,1.058-1.61,1.058-2.063c0-0.378-0.58-0.553-0.881-0.553
		c-0.454,0-1.259,0.277-1.41,0.778c-0.05,0.177-0.025,0.354-0.075,0.529c-0.126,0.453-0.201,0.806-0.277,1.284l-0.176,0.15
		c-0.428,0.025-0.831,0.151-1.258,0.151c-0.15,0-0.277-0.051-0.402-0.076c-0.504,0.076-1.083,0.528-1.083,1.058
		c0,0.478,0.353,0.527,0.755,0.527c0.479,0,0.932-0.1,1.409-0.125c-0.226,0.553-0.604,1.106-0.704,1.687
		c-0.05,0.226-0.05,0.427-0.101,0.653c-0.227,0.704-0.428,1.384-0.78,2.039c-0.429,0.83-0.579,1.711-0.806,2.616
		c-0.05,0.201-0.125,0.378-0.302,0.478c-0.176,0.68-0.78,1.057-0.78,1.813c0,0.149,0.026,0.301,0.026,0.451
		c0,0.076-0.051,0.151-0.051,0.252c0,0.277-0.101,0.352,0.125,0.352c0.151,0,0.303-0.05,0.453-0.074
		c0.252-0.277,0.554-0.604,0.554-1.007c0-0.076-0.025-0.151-0.075-0.202c0.529-0.729,0.805-1.585,1.031-2.439
		c0.705-0.681,1.409-2.29,1.436-3.247c0.1-0.201,0.251-0.377,0.326-0.604c0.654-0.68,0.68-2.365,1.434-2.843
		C121.376,41.161,122.559,41.01,122.734,41.01z"/>
	<path fill="#9ECEFF" d="M129.327,36.254c0-0.101-0.024-0.201-0.051-0.302c-0.226-0.125-0.502-0.201-0.754-0.201
		c-0.429,0-1.586,0.68-1.586,1.132c0,0.202,0.353,0.353,0.529,0.454c-0.125,0.2-0.454,0.377-0.479,0.604
		c0.024,0.101,0.101,0.176,0.15,0.252c-0.1,0.074-0.226,0.176-0.352,0.227c0.024,0.049,0.075,0.125,0.075,0.201
		c0,0.252-0.478,0.527-0.478,0.855c0,0.1,0.024,0.2,0.05,0.276c0.503-0.402,1.132-0.755,1.309-1.435
		c0.453-0.427,0.931-0.98,1.334-1.46C129.227,36.683,129.327,36.482,129.327,36.254z"/>
	<path fill="#9ECEFF" d="M132.045,43.578c0.101,0,0.176-0.076,0.252-0.126c0.251-0.151,0.554-0.276,0.805-0.403
		c0.604-0.352,1.032-1.132,1.032-1.812c0-0.176-0.026-0.352-0.252-0.352h-0.076c-0.075-0.126-0.2-0.177-0.352-0.177
		c-0.176,0-0.277,0.276-0.604,0.276c-0.077,0-0.126,0-0.202-0.023c-0.026-0.103-0.125-0.127-0.226-0.127
		c-0.227,0-0.504,0.127-0.706,0.227c-0.226,0.1-0.477,0.2-0.729,0.227c-0.303,0.025-0.604,0.05-0.881,0.176
		c-0.252,0.125-0.479,0.327-0.729,0.478c-0.579,0.076-2.567,1.661-2.768,2.215l-0.101,0.302c-0.152,0.353-0.63,0.529-0.63,0.931
		c0,0.403,1.258,0.63,1.586,0.63h0.024c0.102,0.151,0.277,0.226,0.452,0.226c0.303,0,0.58-0.176,0.882-0.176
		c0.377,0,0.83,0.102,1.233,0.102c0.05,0.276,0.352,0.276,0.579,0.302v0.252c-0.227,0.428-0.73,0.502-0.957,0.855
		c-0.277,0.452-0.73,0.729-1.031,1.156c-0.152,0.177-0.252,0.353-0.428,0.503c-0.73,0.579-1.485,1.158-2.24,1.713
		c-0.302,0.074-0.629,0.226-0.604,0.578l0.076,0.126l-0.127,0.503c0.101,0.15,0.202,0.327,0.402,0.353
		c0.252-0.176,0.378-0.478,0.528-0.756c0.253-0.377,0.881-0.779,1.259-1.03c0.755-0.479,1.309-1.082,1.938-1.712
		c0.176-0.176,0.377-0.302,0.554-0.503c0.075-0.076,0.151-0.177,0.226-0.253c0.177-0.125,0.378-0.226,0.579-0.325
		c0.428-0.228,1.233-1.032,1.233-1.536c0-0.125-0.05-0.276-0.151-0.377c-0.05-1.031-3.296-1.107-4.077-1.183l0.051-0.202
		c0.152-0.956,2.391-2.214,3.297-2.214c-0.024,0.025-0.024,0.076-0.024,0.127c0,0.126,0.125,0.126,0.226,0.126
		c0.05,0,0.101-0.026,0.126-0.026l0.252,0.075c-0.026,0.102-0.052,0.227-0.052,0.353C131.691,43.3,131.769,43.578,132.045,43.578z"
		/>
	<path fill="#9ECEFF" d="M153.406,44.382c0.126-0.176,0.378-0.529,0.378-0.73c0-0.15-0.126-0.2-0.252-0.2
		c-0.83,0-3.521,2.314-4.328,2.44c-1.232,0.729-2.439,1.434-3.672,2.139c-0.277,0.151-0.529,0.277-0.754,0.453
		c-0.781,0.528-2.668,1.56-3.575,1.56c-0.175,0-0.754-0.227-0.754-0.428v-0.302c0-0.579,0.754-1.61,1.082-2.139
		c0.68-1.107,1.61-2.038,2.391-3.069c0.756-1.007,1.509-1.988,2.391-2.894c0.478-0.504,1.056-0.906,1.734-1.133
		c0.252-0.378,0.654-0.629,1.133-0.629c0.452,0,0.905,0.151,1.359,0.151c1.66,0,0.905-0.806,1.333-1.385
		c0.1-0.125,0.202-0.252,0.202-0.429c0-0.326-0.252-0.478-0.252-0.577c0-0.328,0.302-0.63,0.302-0.981
		c0-0.428-0.528-0.604-0.855-0.68c-0.025-0.276-0.251-0.327-0.479-0.327c-0.604,0-1.358,1.031-1.66,1.51
		c-1.358,0.729-2.542,1.762-3.597,2.869c-0.354,0.352-0.655,0.779-0.957,1.157c-0.376,0.502-0.779,0.956-1.132,1.484
		c-0.629,0.855-1.484,1.534-2.063,2.441c-0.126,0.981-1.435,1.76-1.534,2.817c-0.429,0.378-0.831,1.158-0.831,1.712
		c0,0.327,0.1,0.628,0.1,0.93c0,0.076,0,0.127-0.024,0.201c0.175,0.555,0.578,0.806,1.132,0.806c0.377,0,0.755,0.025,1.106,0.025
		c0.454,0,0.807-0.051,1.208-0.251c0.958-0.529,1.887-1.184,2.844-1.736c0.956-0.555,1.963-1.083,2.741-1.888
		c1.133-0.503,4.152-2.643,4.982-2.793c0.051-0.101,0.151-0.151,0.252-0.177L153.406,44.382z"/>
	<path fill-rule="evenodd" clip-rule="evenodd" fill="#9ECEFF" d="M149.657,48.584c0,1.157,0.704,1.861,1.837,1.861
		c0.175,0,0.327,0,0.477-0.074c2.593-1.007,4.731-3.322,5.107-6.114c0.178-0.102,0.277-0.227,0.403-0.378l0.076,0.05
		c0.276,0.729,0.83,1.031,1.51,1.031c0.075,0,0.176-0.023,0.251-0.074c0.277-0.025,0.528-0.126,0.806-0.253
		c0.478-0.176,2.44-1.509,2.44-1.987c0-0.15-0.1-0.201-0.227-0.201c-0.352,0-1.786,1.534-2.542,1.534c-0.125,0-0.276,0-0.352-0.023
		l-0.276-0.127c-0.151-0.704-0.755-0.201-0.957-0.905c-0.024-0.126-0.024-0.277-0.2-0.303c0-0.452-0.303-0.326-0.303-0.528
		c0-0.075,0.075-0.1,0.075-0.176c0-0.201-0.126-0.328-0.302-0.402c0.076-0.302-0.025-0.529-0.326-0.655
		c-0.151-0.176-0.378-0.302-0.628-0.302c-0.278,0-0.68,0-0.958,0.101c-0.428,0.177-1.158,0.957-1.559,1.259
		c0,0.227-0.329,0.302-0.479,0.352c-0.302,0.102-0.529,0.202-0.705,0.479c-0.201,0.353-0.377,0.705-0.68,0.981
		c-0.125,0.125-0.503,0.453-0.503,0.629c0,0.101,0.025,0.176,0.025,0.276C150.513,45.415,149.657,47.201,149.657,48.584z
		 M151.017,48.634c0-0.981,0.805-1.735,0.981-2.666c0.829-1.158,1.459-2.14,2.792-2.743c0.729,0,0.955,0.503,0.955,1.082
		c0,0.378-0.326,1.006-0.326,1.51c0,0.125,0.051,0.251,0.101,0.377c-0.653,1.258-1.711,2.894-3.296,2.919
		c-0.126,0.177-0.302,0.378-0.527,0.378C151.192,49.491,151.017,49.062,151.017,48.634z"/>
	<path fill-rule="evenodd" clip-rule="evenodd" fill="#9ECEFF" d="M168.051,42.092c0-0.402-0.126-0.831-0.479-1.057
		c-0.047-0.126-0.2-0.201-0.325-0.201c-0.227,0-0.479,0.201-0.654,0.326c-0.303,0.052-0.604,0.152-0.83,0.354
		c-0.528,0.452-0.981,1.032-1.485,1.534c-0.428,0.428-0.78,0.881-1.107,1.359c-0.401,0.529-0.804,1.031-1.333,1.435
		c0.377-0.855,1.006-2.315,1.685-2.919c0.227-0.228,0.806-0.554,0.806-0.906c0-0.125-0.177-0.277-0.252-0.402l0.075-0.454
		c-0.1-0.199-0.302-0.302-0.527-0.302c-0.177,0-0.354,0.051-0.503,0.151l-0.152,0.202c-0.075-0.075-0.276-0.228-0.402-0.228
		c-0.352,0-1.031,1.008-1.031,1.334c0,0.151,0.101,0.302,0.176,0.428c-0.453,1.209-1.133,2.341-1.309,3.648
		c-0.654,0.353-1.66,2.819-1.66,3.549v0.352c0.15,0.101,0.302,0.201,0.479,0.201c0.451,0,0.604-0.78,1.056-0.931
		c0.505-1.183,1.233-1.987,2.039-2.969c0.653-0.354,0.88-1.309,1.534-1.762c0.151-0.126,0.327-0.227,0.479-0.353v0.025
		c0.101-0.151,0.201-0.327,0.302-0.503c0.251-0.378,1.51-1.359,1.938-1.485c0.025,0.126,0.025,0.252,0.025,0.378
		c0,0.68-0.503,1.157-0.806,1.711c-0.956,1.686-1.636,3.522-2.189,5.385c0.102,0.252,0.528,0.252,0.755,0.252
		c0.177,0,0.327-0.076,0.453-0.176l0.201-0.076c0.176-0.201,0.378-0.428,0.604-0.604c0.427-0.378,0.679-0.83,1.106-1.183
		c0.353-0.327,1.208-0.906,1.284-1.384c0.402-0.327,0.805-0.654,1.183-1.007c0.176-0.15,0.353-0.327,0.528-0.452
		c0.302-0.253,0.629-0.454,0.931-0.68c0.277-0.202,0.604-0.479,0.604-0.832c0-0.15-0.075-0.251-0.226-0.251
		c-0.504,0-2.391,1.888-2.844,2.315c-0.931,0.855-1.888,1.661-2.869,2.441c0.102-0.404,0.202-0.881,0.454-1.233
		c0.226-0.353,0.579-0.68,0.579-1.107C167.02,44.861,168.051,43.476,168.051,42.092z"/>
	<path fill-rule="evenodd" clip-rule="evenodd" fill="#9ECEFF" d="M177.839,42.092c0-0.402-0.126-0.831-0.479-1.057
		c-0.05-0.126-0.201-0.201-0.327-0.201c-0.226,0-0.478,0.201-0.653,0.326c-0.303,0.052-0.604,0.152-0.83,0.354
		c-0.529,0.452-0.981,1.032-1.485,1.534c-0.427,0.428-0.779,0.881-1.106,1.359c-0.402,0.529-0.805,1.031-1.334,1.435
		c0.378-0.855,1.007-2.315,1.686-2.919c0.227-0.228,0.806-0.554,0.806-0.906c0-0.125-0.176-0.277-0.252-0.402l0.076-0.454
		c-0.101-0.199-0.302-0.302-0.528-0.302c-0.176,0-0.354,0.051-0.503,0.151l-0.152,0.202c-0.075-0.075-0.275-0.228-0.402-0.228
		c-0.352,0-1.031,1.008-1.031,1.334c0,0.151,0.1,0.302,0.176,0.428c-0.453,1.209-1.133,2.341-1.309,3.648
		c-0.654,0.353-1.66,2.819-1.66,3.549v0.352c0.15,0.101,0.302,0.201,0.479,0.201c0.451,0,0.604-0.78,1.056-0.931
		c0.503-1.183,1.233-1.987,2.04-2.969c0.653-0.354,0.879-1.309,1.535-1.762c0.15-0.126,0.326-0.227,0.478-0.353v0.025
		c0.101-0.151,0.203-0.327,0.302-0.503c0.252-0.378,1.509-1.359,1.937-1.485c0.026,0.126,0.026,0.252,0.026,0.378
		c0,0.68-0.504,1.157-0.806,1.711c-0.955,1.686-1.635,3.522-2.188,5.385c0.1,0.252,0.527,0.252,0.754,0.252
		c0.178,0,0.326-0.076,0.452-0.176l0.202-0.076c0.176-0.201,0.377-0.428,0.604-0.604c0.426-0.378,0.678-0.83,1.106-1.183
		c0.353-0.327,1.208-0.906,1.284-1.384c0.401-0.327,0.805-0.654,1.182-1.007c0.177-0.15,0.353-0.327,0.528-0.452
		c0.303-0.253,0.629-0.454,0.931-0.68c0.277-0.202,0.604-0.479,0.604-0.832c0-0.15-0.075-0.251-0.227-0.251
		c-0.503,0-2.391,1.888-2.842,2.315c-0.932,0.855-1.888,1.661-2.87,2.441c0.101-0.404,0.202-0.881,0.454-1.233
		c0.227-0.353,0.577-0.68,0.577-1.107C176.807,44.861,177.839,43.476,177.839,42.092z"/>
	<path fill-rule="evenodd" clip-rule="evenodd" fill="#9ECEFF" d="M177.838,48.936c0,0.579,0.353,1.359,1.007,1.436
		c0.177,0.075,0.327,0.125,0.503,0.176c0.176-0.051,0.579-0.151,0.654-0.302c2.768-1.057,5.812-3.397,7.927-5.461
		c0.226-0.252,1.132-1.057,1.132-1.358c0-0.126-0.075-0.227-0.201-0.227c-0.705,0-1.987,1.535-2.516,2.013
		c-1.107,1.031-5.259,4.077-6.644,4.077c-0.327,0-0.376-0.453-0.376-0.706c0-0.452,0.25-1.232,0.654-1.457
		c0.402-0.203,0.83-0.354,1.257-0.479c0.227-0.076,0.427-0.228,0.604-0.354c0.353-0.201,0.705-0.353,1.083-0.528
		c0.352-0.176,1.837-1.459,2.088-1.761c0.126-0.177,0.428-0.579,0.554-0.68c0.075-0.05,0.176-0.076,0.227-0.15
		c0.301-0.228,0.376-0.605,0.376-0.957c0-0.101,0-0.175-0.025-0.252c0.025-0.201,0.051-0.378,0.051-0.578
		c0-0.403-0.303-0.503-0.654-0.503c-1.132,0-1.661,0.604-2.616,1.031c-0.202,0.101-0.403,0.176-0.604,0.277
		c-0.78,0.402-2.44,2.339-3.096,3.068c-0.302,0.354-0.527,0.68-0.704,1.107c-0.101,0.252-0.201,0.479-0.327,0.705
		c-0.302,0.654-0.176,0.78-0.276,1.435C177.889,48.634,177.838,48.786,177.838,48.936z M184.229,42.772
		c0.051,0.076,0.075,0.176,0.075,0.302c0,0.378-0.201,0.68-0.527,0.882c-0.227,0.577-2.215,1.861-2.82,2.062
		c-0.201,0.05-0.402,0.075-0.604,0.101c0.177-0.452,0.907-1.51,1.308-1.762c0.228-0.126,0.454-0.251,0.604-0.452
		c0.252-0.303,1.309-1.184,1.687-1.184C184.028,42.721,184.129,42.747,184.229,42.772z"/>
	<path fill-rule="evenodd" clip-rule="evenodd" fill="#9ECEFF" d="M185.186,48.862c0,0.477,0.151,1.483,0.655,1.686
		c0.049,0.251,0.277,0.227,0.477,0.227c0.227,0,1.585,0.024,1.661-0.15c0.151,0,0.302-0.102,0.354-0.252
		c1.131-0.402,1.483-0.881,2.439-1.637c0.528-0.427,1.183-0.704,1.736-1.232c1.132-0.931,4.881-3.321,4.881-3.9
		c0-0.15-0.098-0.227-0.226-0.227c-0.252,0-0.479,0.076-0.68,0.227c-0.78,0.528-1.535,1.158-2.289,1.763
		c-0.731,0.577-1.787,1.307-2.567,1.81c-1.032,0.655-3.698,2.643-4.906,2.643c-0.504,0-0.504-0.427-0.504-0.829
		c0-0.731,0.353-1.409,0.755-2.014c1.183-1.661,2.315-3.322,4.001-4.504v0.15c-0.15,0.101-0.327,0.277-0.327,0.479
		c0,0.428,0.479,0.654,0.856,0.654c0.326,0,0.679-0.102,0.88-0.378c-0.075-0.478,0.327-0.956,0.528-1.383
		c-0.075-0.202-0.176-0.404-0.251-0.58c0-0.301,0.075-0.578,0.075-0.855c0-0.352-0.201-0.503-0.527-0.503
		c-0.228,0-0.554,0.151-0.781,0.228c-0.075-0.026-0.151-0.051-0.227-0.051c-0.276,0-0.276,0.276-0.451,0.401
		c-0.153,0.126-0.253,0.202-0.378,0.353c-0.328,0.428-0.554,1.008-1.108,1.209c-0.302,0.479-0.981,0.503-0.981,1.182
		c-0.378,0.252-1.158,0.78-1.283,1.209l0.049,0.15c-0.251,0.252-0.527,0.478-0.729,0.755
		C185.714,46.32,185.186,47.83,185.186,48.862z"/>
	<path fill="#9ECEFF" d="M201.238,41.01c0.806,0,1.511,0.076,1.511-1.031c0-0.428-0.327-0.528-0.68-0.528
		c-0.402,0-1.358,0.101-1.736,0.176c0.201-0.553,1.058-1.61,1.058-2.063c0-0.378-0.58-0.553-0.882-0.553
		c-0.452,0-1.258,0.277-1.409,0.778c-0.05,0.177-0.025,0.354-0.075,0.529c-0.125,0.453-0.2,0.806-0.276,1.284l-0.176,0.15
		c-0.428,0.025-0.831,0.151-1.259,0.151c-0.15,0-0.276-0.051-0.402-0.076c-0.504,0.076-1.082,0.528-1.082,1.058
		c0,0.478,0.353,0.527,0.755,0.527c0.478,0,0.931-0.1,1.408-0.125c-0.226,0.553-0.604,1.106-0.703,1.687
		c-0.051,0.226-0.051,0.427-0.102,0.653c-0.226,0.704-0.429,1.384-0.78,2.039c-0.428,0.83-0.578,1.711-0.804,2.616
		c-0.051,0.201-0.126,0.378-0.303,0.478c-0.176,0.68-0.779,1.057-0.779,1.813c0,0.149,0.025,0.301,0.025,0.451
		c0,0.076-0.05,0.151-0.05,0.252c0,0.277-0.102,0.352,0.124,0.352c0.152,0,0.303-0.05,0.454-0.074
		c0.251-0.277,0.554-0.604,0.554-1.007c0-0.076-0.025-0.151-0.076-0.202c0.529-0.729,0.806-1.585,1.032-2.439
		c0.705-0.681,1.408-2.29,1.435-3.247c0.101-0.201,0.252-0.377,0.327-0.604c0.654-0.68,0.679-2.365,1.434-2.843
		C199.88,41.161,201.062,41.01,201.238,41.01z"/>
	<path fill-rule="evenodd" clip-rule="evenodd" fill="#9ECEFF" d="M207.982,37.815c0-0.428-0.075-0.981-0.629-0.981
		c-0.629,0-1.712,0.554-1.712,1.283c0,0.101,0.051,0.176,0.102,0.252c-0.403,0.829-0.705,1.66-1.107,2.466
		c-0.428,0.905-0.881,1.786-1.334,2.692c-0.101,0.176-1.232,2.441-1.232,2.491c0,0.377,0.024,0.302,0.276,0.479
		c0.554-0.203,0.68-0.605,0.981-1.082c0.277-0.429,1.082-0.883,1.082-1.386c0-0.073-0.026-0.15-0.026-0.227
		c0.228-0.302,0.505-0.578,0.732-0.905c0.251-0.402,0.452-0.831,0.678-1.232c0.403-0.655,0.932-0.957,1.283-1.762
		c0.127-0.101,0.277-0.228,0.327-0.378l-0.05-0.151c0-0.2,0.101-0.326,0.302-0.326C207.882,38.696,207.982,38.243,207.982,37.815z
		 M200.861,48.936c-0.024-0.577,0.353-0.83,0.755-1.182v-0.126c0-0.126,0-0.377-0.176-0.377c-0.252,0-0.428,0.227-0.554,0.428
		c-0.302,0.125-0.479,0.302-0.68,0.554c-0.327,0.327-1.283,0.276-1.283,1.031c0,0.553,0.503,1.031,1.058,1.031
		c0.452,0,0.88-0.151,0.955-0.653c0.076-0.127,0.176-0.277,0.176-0.453c0-0.149-0.1-0.201-0.251-0.201V48.936z"/>
	<path fill-rule="evenodd" clip-rule="evenodd" fill="#FFFFFF" d="M208.909,2.976c0,1.72,1.376,3.008,3.017,3.008
		c1.632,0,3-1.288,3-3.008c0-1.689-1.368-2.976-3-2.976C210.285,0,208.909,1.287,208.909,2.976z M209.453,2.976
		c0-1.432,1.072-2.536,2.473-2.536c1.384,0,2.455,1.104,2.455,2.536c0,1.464-1.071,2.567-2.455,2.567
		C210.525,5.543,209.453,4.44,209.453,2.976z M210.757,4.736h0.545V3.232h0.575l0.952,1.504h0.585l-1.001-1.544
		c0.521-0.056,0.92-0.32,0.92-0.952c0-0.672-0.392-1-1.224-1h-1.353V4.736z M211.302,1.68h0.72c0.367,0,0.769,0.072,0.769,0.536
		c0,0.551-0.441,0.575-0.921,0.575h-0.568V1.68z"/>
	<path fill-rule="evenodd" clip-rule="evenodd" fill="#9ECEFF" d="M212.181,36.095h-2.317v0.392h0.917v2.537h0.483v-2.537h0.917
		V36.095z M215.998,36.095h-0.739l-0.86,2.225l-0.875-2.225h-0.746v2.929h0.483v-2.445h0.014l0.959,2.445h0.306l0.959-2.445h0.015
		v2.445h0.483V36.095z"/>
</g>
</svg>
